{
  "accessors": [
    {
      "bufferView": 2,
      "componentType": 5126,
      "count": 65532,
      "max": [
        13.649954795837402,
        17.408241271972656,
        15.882129669189453
      ],
      "min": [
        -15.534133911132813,
        -16.477933883666992,
        0.6584134101867676
      ],
      "type": "VEC3"
    },
    {
      "bufferView": 2,
      "byteOffset": 786384,
      "componentType": 5126,
      "count": 65532,
      "max": [
        0.9999962449073792,
        0.9999945163726807,
        1.0
      ],
      "min": [
        -0.9999644756317139,
        -0.999999463558197,
        -1.0
      ],
      "type": "VEC3"
    },
    {
      "bufferView": 1,
      "componentType": 5126,
      "count": 65532,
      "max": [
        0.9997209906578064,
        0.8406980037689209
      ],
      "min": [
        0.00012199999764561653,
        0.000375000003259629
      ],
      "type": "VEC2"
    },
    {
      "bufferView": 0,
      "componentType": 5125,
      "count": 264207,
      "type": "SCALAR"
    },
    {
      "bufferView": 2,
      "byteOffset": 1572768,
      "componentType": 5126,
      "count": 65532,
      "max": [
        10.941899299621582,
        13.683154106140137,
        14.934647560119629
      ],
      "min": [
        -13.525349617004395,
        -14.923831939697266,
        1.0198936462402344
      ],
      "type": "VEC3"
    },
    {
      "bufferView": 2,
      "byteOffset": 2359152,
      "componentType": 5126,
      "count": 65532,
      "max": [
        0.9998090267181396,
        0.9999939799308777,
        1.0
      ],
      "min": [
        -0.9999880194664001,
        -0.9999999403953552,
        -1.0
      ],
      "type": "VEC3"
    },
    {
      "bufferView": 1,
      "byteOffset": 524256,
      "componentType": 5126,
      "count": 65532,
      "max": [
        0.9990699887275696,
        0.8406980037689209
      ],
      "min": [
        0.00012199999764561653,
        0.0003910000086762011
      ],
      "type": "VEC2"
    },
    {
      "bufferView": 0,
      "byteOffset": 1056828,
      "componentType": 5125,
      "count": 295407,
      "type": "SCALAR"
    },
    {
      "bufferView": 2,
      "byteOffset": 3145536,
      "componentType": 5126,
      "count": 65532,
      "max": [
        9.41577434539795,
        13.700702667236328,
        13.461965560913086
      ],
      "min": [
        -13.429728507995605,
        -14.839231491088867,
        0.661076545715332
      ],
      "type": "VEC3"
    },
    {
      "bufferView": 2,
      "byteOffset": 3931920,
      "componentType": 5126,
      "count": 65532,
      "max": [
        0.9999968409538269,
        0.9999721050262451,
        1.0
      ],
      "min": [
        -0.999992847442627,
        -0.9999931454658508,
        -1.0
      ],
      "type": "VEC3"
    },
    {
      "bufferView": 1,
      "byteOffset": 1048512,
      "componentType": 5126,
      "count": 65532,
      "max": [
        0.998881995677948,
        0.8406980037689209
      ],
      "min": [
        0.00012199999764561653,
        0.00042299999040551484
      ],
      "type": "VEC2"
    },
    {
      "bufferView": 0,
      "byteOffset": 2238456,
      "componentType": 5125,
      "count": 271002,
      "type": "SCALAR"
    },
    {
      "bufferView": 2,
      "byteOffset": 4718304,
      "componentType": 5126,
      "count": 65532,
      "max": [
        10.931024551391602,
        13.585538864135742,
        15.196474075317383
      ],
      "min": [
        -13.41231632232666,
        -15.352517127990723,
        0.661076545715332
      ],
      "type": "VEC3"
    },
    {
      "bufferView": 2,
      "byteOffset": 5504688,
      "componentType": 5126,
      "count": 65532,
      "max": [
        0.9999985098838806,
        0.9999934434890747,
        0.9999999403953552
      ],
      "min": [
        -0.9999914169311523,
        -0.9999805092811584,
        -1.0
      ],
      "type": "VEC3"
    },
    {
      "bufferView": 1,
      "byteOffset": 1572768,
      "componentType": 5126,
      "count": 65532,
      "max": [
        0.9996640086174011,
        0.8406980037689209
      ],
      "min": [
        0.00012199999764561653,
        0.0003980000037699938
      ],
      "type": "VEC2"
    },
    {
      "bufferView": 0,
      "byteOffset": 3322464,
      "componentType": 5125,
      "count": 260214,
      "type": "SCALAR"
    },
    {
      "bufferView": 2,
      "byteOffset": 6291072,
      "componentType": 5126,
      "count": 65532,
      "max": [
        10.292245864868164,
        13.715290069580078,
        15.267033576965332
      ],
      "min": [
        -13.428686141967773,
        -14.923831939697266,
        0.661076545715332
      ],
      "type": "VEC3"
    },
    {
      "bufferView": 2,
      "byteOffset": 7077456,
      "componentType": 5126,
      "count": 65532,
      "max": [
        0.9999974966049194,
        0.999993622303009,
        1.0
      ],
      "min": [
        -0.9999986290931702,
        -0.9999997615814209,
        -1.0
      ],
      "type": "VEC3"
    },
    {
      "bufferView": 1,
      "byteOffset": 2097024,
      "componentType": 5126,
      "count": 65532,
      "max": [
        0.9998070001602173,
        0.8404539823532104
      ],
      "min": [
        0.0010989999864250422,
        0.006225000135600567
      ],
      "type": "VEC2"
    },
    {
      "bufferView": 0,
      "byteOffset": 4363320,
      "componentType": 5125,
      "count": 252213,
      "type": "SCALAR"
    },
    {
      "bufferView": 2,
      "byteOffset": 7863840,
      "componentType": 5126,
      "count": 65533,
      "max": [
        11.971844673156738,
        13.717976570129395,
        15.551509857177734
      ],
      "min": [
        -14.379851341247559,
        -13.418509483337402,
        0.941169261932373
      ],
      "type": "VEC3"
    },
    {
      "bufferView": 2,
      "byteOffset": 8650236,
      "componentType": 5126,
      "count": 65533,
      "max": [
        0.9999492168426514,
        0.999999463558197,
        1.0
      ],
      "min": [
        -0.9999986886978149,
        -0.9999997019767761,
        -0.9999998211860657
      ],
      "type": "VEC3"
    },
    {
      "bufferView": 1,
      "byteOffset": 2621280,
      "componentType": 5126,
      "count": 65533,
      "max": [
        0.9978359937667847,
        0.8404539823532104
      ],
      "min": [
        0.00012199999764561653,
        0.00041599999531172216
      ],
      "type": "VEC2"
    },
    {
      "bufferView": 0,
      "byteOffset": 5372172,
      "componentType": 5125,
      "count": 236997,
      "type": "SCALAR"
    },
    {
      "bufferView": 2,
      "byteOffset": 9436632,
      "componentType": 5126,
      "count": 65532,
      "max": [
        11.595520973205566,
        13.726866722106934,
        15.552657127380371
      ],
      "min": [
        -13.290117263793945,
        -14.906669616699219,
        0.661076545715332
      ],
      "type": "VEC3"
    },
    {
      "bufferView": 2,
      "byteOffset": 10223016,
      "componentType": 5126,
      "count": 65532,
      "max": [
        0.9999901056289673,
        0.999993622303009,
        1.0
      ],
      "min": [
        -0.9999874234199524,
        -0.999999463558197,
        -1.0
      ],
      "type": "VEC3"
    },
    {
      "bufferView": 1,
      "byteOffset": 3145544,
      "componentType": 5126,
      "count": 65532,
      "max": [
        0.9996020197868347,
        0.8404539823532104
      ],
      "min": [
        0.00012199999764561653,
        0.00041700000292621553
      ],
      "type": "VEC2"
    },
    {
      "bufferView": 0,
      "byteOffset": 6320160,
      "componentType": 5125,
      "count": 229674,
      "type": "SCALAR"
    },
    {
      "bufferView": 2,
      "byteOffset": 11009400,
      "componentType": 5126,
      "count": 65532,
      "max": [
        10.934574127197266,
        13.7296781539917,
        15.536680221557617
      ],
      "min": [
        -13.416815757751465,
        -14.833096504211426,
        1.0448646545410156
      ],
      "type": "VEC3"
    },
    {
      "bufferView": 2,
      "byteOffset": 11795784,
      "componentType": 5126,
      "count": 65532,
      "max": [
        0.9999985098838806,
        0.9999760389328003,
        0.9999999403953552
      ],
      "min": [
        -0.9999982118606567,
        -0.9999996423721313,
        -0.9999997615814209
      ],
      "type": "VEC3"
    },
    {
      "bufferView": 1,
      "byteOffset": 3669800,
      "componentType": 5126,
      "count": 65532,
      "max": [
        0.9991260170936584,
        0.8406980037689209
      ],
      "min": [
        0.00012199999764561653,
        0.0008060000254772604
      ],
      "type": "VEC2"
    },
    {
      "bufferView": 0,
      "byteOffset": 7238856,
      "componentType": 5125,
      "count": 211986,
      "type": "SCALAR"
    },
    {
      "bufferView": 2,
      "byteOffset": 12582168,
      "componentType": 5126,
      "count": 65534,
      "max": [
        10.935890197753906,
        13.711194038391113,
        15.47358226776123
      ],
      "min": [
        -13.550262451171875,
        -14.909372329711914,
        0.661076545715332
      ],
      "type": "VEC3"
    },
    {
      "bufferView": 2,
      "byteOffset": 13368576,
      "componentType": 5126,
      "count": 65534,
      "max": [
        0.9999974966049194,
        0.9999859929084778,
        0.9999999403953552
      ],
      "min": [
        -0.9999985098838806,
        -0.999999463558197,
        -1.0
      ],
      "type": "VEC3"
    },
    {
      "bufferView": 1,
      "byteOffset": 4194056,
      "componentType": 5126,
      "count": 65534,
      "max": [
        0.9989489912986755,
        0.8406980037689209
      ],
      "min": [
        0.00012199999764561653,
        0.0028570001013576984
      ],
      "type": "VEC2"
    },
    {
      "bufferView": 0,
      "byteOffset": 8086800,
      "componentType": 5125,
      "count": 203208,
      "type": "SCALAR"
    },
    {
      "bufferView": 2,
      "byteOffset": 14154984,
      "componentType": 5126,
      "count": 65532,
      "max": [
        10.9016695022583,
        13.723640441894531,
        15.488000869750977
      ],
      "min": [
        -12.154555320739746,
        -14.27278995513916,
        1.082474708557129
      ],
      "type": "VEC3"
    },
    {
      "bufferView": 2,
      "byteOffset": 14941368,
      "componentType": 5126,
      "count": 65532,
      "max": [
        0.9999935626983643,
        0.9999939799308777,
        0.9999997615814209
      ],
      "min": [
        -0.9999986290931702,
        -0.9999952912330627,
        -0.9999999403953552
      ],
      "type": "VEC3"
    },
    {
      "bufferView": 1,
      "byteOffset": 4718328,
      "componentType": 5126,
      "count": 65532,
      "max": [
        0.9997469782829285,
        0.8406980037689209
      ],
      "min": [
        0.00012199999764561653,
        0.0002699999895412475
      ],
      "type": "VEC2"
    },
    {
      "bufferView": 0,
      "byteOffset": 8899632,
      "componentType": 5125,
      "count": 206811,
      "type": "SCALAR"
    },
    {
      "bufferView": 2,
      "byteOffset": 15727752,
      "componentType": 5126,
      "count": 65532,
      "max": [
        11.187970161437988,
        13.723933219909668,
        15.552657127380371
      ],
      "min": [
        -13.541036605834961,
        -14.28227424621582,
        0.661076545715332
      ],
      "type": "VEC3"
    },
    {
      "bufferView": 2,
      "byteOffset": 16514136,
      "componentType": 5126,
      "count": 65532,
      "max": [
        0.9999958872795105,
        0.9999728202819824,
        0.9999997615814209
      ],
      "min": [
        -0.9999788999557495,
        -0.9999829530715942,
        -0.9999998807907104
      ],
      "type": "VEC3"
    },
    {
      "bufferView": 1,
      "byteOffset": 5242584,
      "componentType": 5126,
      "count": 65532,
      "max": [
        0.9998160004615784,
        0.8406980037689209
      ],
      "min": [
        0.00012199999764561653,
        0.004519000183790922
      ],
      "type": "VEC2"
    },
    {
      "bufferView": 0,
      "byteOffset": 9726876,
      "componentType": 5125,
      "count": 179502,
      "type": "SCALAR"
    },
    {
      "bufferView": 2,
      "byteOffset": 17300520,
      "componentType": 5126,
      "count": 65532,
      "max": [
        10.267533302307129,
        13.722174644470215,
        15.54772663116455
      ],
      "min": [
        -12.194847106933594,
        -14.837573051452637,
        1.1151676177978516
      ],
      "type": "VEC3"
    },
    {
      "bufferView": 2,
      "byteOffset": 18086904,
      "componentType": 5126,
      "count": 65532,
      "max": [
        0.9999958872795105,
        0.9999299645423889,
        0.9999988675117493
      ],
      "min": [
        -0.9999350309371948,
        -0.9999992251396179,
        -0.9999998807907104
      ],
      "type": "VEC3"
    },
    {
      "bufferView": 1,
      "byteOffset": 5766840,
      "componentType": 5126,
      "count": 65532,
      "max": [
        0.9998040199279785,
        0.8406980037689209
      ],
      "min": [
        0.00012199999764561653,
        0.031449999660253525
      ],
      "type": "VEC2"
    },
    {
      "bufferView": 0,
      "byteOffset": 10444884,
      "componentType": 5125,
      "count": 170295,
      "type": "SCALAR"
    },
    {
      "bufferView": 2,
      "byteOffset": 18873288,
      "componentType": 5126,
      "count": 65534,
      "max": [
        10.941899299621582,
        13.714849472045898,
        15.477276802062988
      ],
      "min": [
        -13.534628868103027,
        -14.311616897583008,
        1.0457439422607422
      ],
      "type": "VEC3"
    },
    {
      "bufferView": 2,
      "byteOffset": 19659696,
      "componentType": 5126,
      "count": 65534,
      "max": [
        0.9999889731407166,
        0.9999985098838806,
        0.9999999403953552
      ],
      "min": [
        -0.9999998211860657,
        -0.9999945759773254,
        -0.9999998807907104
      ],
      "type": "VEC3"
    },
    {
      "bufferView": 1,
      "byteOffset": 6291096,
      "componentType": 5126,
      "count": 65534,
      "max": [
        0.9997919797897339,
        0.8406980037689209
      ],
      "min": [
        0.00012199999764561653,
        0.0002519999979995191
      ],
      "type": "VEC2"
    },
    {
      "bufferView": 0,
      "byteOffset": 11126064,
      "componentType": 5125,
      "count": 148497,
      "type": "SCALAR"
    },
    {
      "bufferView": 2,
      "byteOffset": 20446104,
      "componentType": 5126,
      "count": 37301,
      "max": [
        10.909083366394043,
        13.718315124511719,
        15.482136726379395
      ],
      "min": [
        -13.495000839233398,
        -14.893208503723145,
        0.661076545715332
      ],
      "type": "VEC3"
    },
    {
      "bufferView": 2,
      "byteOffset": 20893716,
      "componentType": 5126,
      "count": 37301,
      "max": [
        0.999991774559021,
        0.9999626874923706,
        1.0
      ],
      "min": [
        -0.9998552203178406,
        -0.9999715685844421,
        -1.0
      ],
      "type": "VEC3"
    },
    {
      "bufferView": 1,
      "byteOffset": 6815368,
      "componentType": 5126,
      "count": 37301,
      "max": [
        0.9993020296096802,
        0.8406980037689209
      ],
      "min": [
        0.00012199999764561653,
        0.0004900000058114529
      ],
      "type": "VEC2"
    },
    {
      "bufferView": 0,
      "byteOffset": 11720052,
      "componentType": 5125,
      "count": 69984,
      "type": "SCALAR"
    }
  ],
  "asset": {
    "extras": {
      "author": "The Hallwyl Museum (Hallwylska museet) (https://sketchfab.com/TheHallwylMuseum)",
      "license": "CC-BY-4.0 (http://creativecommons.org/licenses/by/4.0/)",
      "source": "https://sketchfab.com/3d-models/the-dining-room-da3e970d523a46e4974b2357b6a9538e",
      "title": "The Dining Room"
    },
    "generator": "Sketchfab-12.65.0",
    "version": "2.0"
  },
  "bufferViews": [
    {
      "buffer": 0,
      "byteLength": 11999988,
      "name": "floatBufferViews",
      "target": 34963
    },
    {
      "buffer": 0,
      "byteLength": 7113776,
      "byteOffset": 11999988,
      "byteStride": 8,
      "name": "floatBufferViews",
      "target": 34962
    },
    {
      "buffer": 0,
      "byteLength": 21341328,
      "byteOffset": 19113764,
      "byteStride": 12,
      "name": "floatBufferViews",
      "target": 34962
    }
  ],
  "buffers": [
    {
      "byteLength": 40455092,
      "uri": "scene.bin"
    }
  ],
  "extensionsUsed": [
    "KHR_materials_unlit"
  ],
  "images": [
    {
      "uri": "textures/model_Material_u1_v1_baseColor.jpeg"
    }
  ],
  "materials": [
    {
      "extensions": {
        "KHR_materials_unlit": {}
      },
      "name": "model_Material_u1_v1",
      "pbrMetallicRoughness": {
        "baseColorTexture": {
          "index": 0
        },
        "metallicFactor": 0.0
      }
    }
  ],
  "meshes": [
    {
      "name": "Object_0",
      "primitives": [
        {
          "attributes": {
            "NORMAL": 1,
            "POSITION": 0,
            "TEXCOORD_0": 2
          },
          "indices": 3,
          "material": 0,
          "mode": 4
        }
      ]
    },
    {
      "name": "Object_1",
      "primitives": [
        {
          "attributes": {
            "NORMAL": 5,
            "POSITION": 4,
            "TEXCOORD_0": 6
          },
          "indices": 7,
          "material": 0,
          "mode": 4
        }
      ]
    },
    {
      "name": "Object_2",
      "primitives": [
        {
          "attributes": {
            "NORMAL": 9,
            "POSITION": 8,
            "TEXCOORD_0": 10
          },
          "indices": 11,
          "material": 0,
          "mode": 4
        }
      ]
    },
    {
      "name": "Object_3",
      "primitives": [
        {
          "attributes": {
            "NORMAL": 13,
            "POSITION": 12,
            "TEXCOORD_0": 14
          },
          "indices": 15,
          "material": 0,
          "mode": 4
        }
      ]
    },
    {
      "name": "Object_4",
      "primitives": [
        {
          "attributes": {
            "NORMAL": 17,
            "POSITION": 16,
            "TEXCOORD_0": 18
          },
          "indices": 19,
          "material": 0,
          "mode": 4
        }
      ]
    },
    {
      "name": "Object_5",
      "primitives": [
        {
          "attributes": {
            "NORMAL": 21,
            "POSITION": 20,
            "TEXCOORD_0": 22
          },
          "indices": 23,
          "material": 0,
          "mode": 4
        }
      ]
    },
    {
      "name": "Object_6",
      "primitives": [
        {
          "attributes": {
            "NORMAL": 25,
            "POSITION": 24,
            "TEXCOORD_0": 26
          },
          "indices": 27,
          "material": 0,
          "mode": 4
        }
      ]
    },
    {
      "name": "Object_7",
      "primitives": [
        {
          "attributes": {
            "NORMAL": 29,
            "POSITION": 28,
            "TEXCOORD_0": 30
          },
          "indices": 31,
          "material": 0,
          "mode": 4
        }
      ]
    },
    {
      "name": "Object_8",
      "primitives": [
        {
          "attributes": {
            "NORMAL": 33,
            "POSITION": 32,
            "TEXCOORD_0": 34
          },
          "indices": 35,
          "material": 0,
          "mode": 4
        }
      ]
    },
    {
      "name": "Object_9",
      "primitives": [
        {
          "attributes": {
            "NORMAL": 37,
            "POSITION": 36,
            "TEXCOORD_0": 38
          },
          "indices": 39,
          "material": 0,
          "mode": 4
        }
      ]
    },
    {
      "name": "Object_10",
      "primitives": [
        {
          "attributes": {
            "NORMAL": 41,
            "POSITION": 40,
            "TEXCOORD_0": 42
          },
          "indices": 43,
          "material": 0,
          "mode": 4
        }
      ]
    },
    {
      "name": "Object_11",
      "primitives": [
        {
          "attributes": {
            "NORMAL": 45,
            "POSITION": 44,
            "TEXCOORD_0": 46
          },
          "indices": 47,
          "material": 0,
          "mode": 4
        }
      ]
    },
    {
      "name": "Object_12",
      "primitives": [
        {
          "attributes": {
            "NORMAL": 49,
            "POSITION": 48,
            "TEXCOORD_0": 50
          },
          "indices": 51,
          "material": 0,
          "mode": 4
        }
      ]
    },
    {
      "name": "Object_13",
      "primitives": [
        {
          "attributes": {
            "NORMAL": 53,
            "POSITION": 52,
            "TEXCOORD_0": 54
          },
          "indices": 55,
          "material": 0,
          "mode": 4
        }
      ]
    }
  ],
  "nodes": [
    {
      "children": [
        1
      ],
      "matrix": [
        0.3398478031158447,
        0.0,
        0.0,
        0.0,
        0.0,
        7.546137117749757e-17,
        -0.3398478031158447,
        0.0,
        0.0,
        0.3398478031158447,
        7.546137117749757e-17,
        0.0,
        0.0,
        0.0,
        0.0,
        1.0
      ],
      "name": "Sketchfab_model"
    },
    {
      "children": [
        2,
        3,
        4,
        5,
        6,
        7,
        8,
        9,
        10,
        11,
        12,
        13,
        14,
        15
      ],
      "name": "model.obj.cleaner.materialmerger.gles"
    },
    {
      "mesh": 0,
      "name": "Object_2"
    },
    {
      "mesh": 1,
      "name": "Object_3"
    },
    {
      "mesh": 2,
      "name": "Object_4"
    },
    {
      "mesh": 3,
      "name": "Object_5"
    },
    {
      "mesh": 4,
      "name": "Object_6"
    },
    {
      "mesh": 5,
      "name": "Object_7"
    },
    {
      "mesh": 6,
      "name": "Object_8"
    },
    {
      "mesh": 7,
      "name": "Object_9"
    },
    {
      "mesh": 8,
      "name": "Object_10"
    },
    {
      "mesh": 9,
      "name": "Object_11"
    },
    {
      "mesh": 10,
      "name": "Object_12"
    },
    {
      "mesh": 11,
      "name": "Object_13"
    },
    {
      "mesh": 12,
      "name": "Object_14"
    },
    {
      "mesh": 13,
      "name": "Object_15"
    }
  ],
  "samplers": [
    {
      "magFilter": 9729,
      "minFilter": 9987,
      "wrapS": 10497,
      "wrapT": 10497
    }
  ],
  "scene": 0,
  "scenes": [
    {
      "name": "Sketchfab_Scene",
      "nodes": [
        0
      ]
    }
  ],
  "textures": [
    {
      "sampler": 0,
      "source": 0
    }
  ]
}
